<?xml version="1.0" standalone="no"?>
<!DOCTYPE svg PUBLIC "-//W3C//DTD SVG 20010904//EN"
 "http://www.w3.org/TR/2001/REC-SVG-20010904/DTD/svg10.dtd">
<svg version="1.0" xmlns="http://www.w3.org/2000/svg"
 width="260.000000pt" height="260.000000pt" viewBox="0 0 260.000000 260.000000"
 preserveAspectRatio="xMidYMid meet">
<metadata>
Created by potrace 1.14, written by Peter Selinger 2001-2017
</metadata>
<g transform="translate(0.000000,260.000000) scale(0.100000,-0.100000)"
fill="#000000" stroke="none">
<path d="M1470 2269 c-36 -21 -161 -94 -278 -161 -117 -68 -227 -131 -244
-141 -46 -27 -73 -12 -81 44 -12 91 -105 173 -196 172 -61 -1 -110 -22 -149
-64 -78 -83 -75 -208 7 -282 50 -45 100 -61 168 -54 50 5 59 3 129 -39 170
-100 494 -284 501 -284 5 0 59 29 121 64 l112 65 60 -37 c50 -31 60 -43 69
-77 20 -76 101 -138 182 -138 145 -1 240 140 180 268 -39 83 -117 131 -200
122 -25 -3 -50 -7 -56 -8 -5 -2 -60 24 -121 59 -61 34 -113 62 -116 62 -3 0
-56 -29 -117 -65 l-113 -65 -61 34 c-104 57 -127 71 -127 76 0 3 44 30 97 60
53 30 144 82 203 116 l107 61 224 -130 c123 -71 242 -139 264 -151 191 -104
180 -90 179 -228 0 -65 -2 -119 -5 -121 -2 -2 -47 -28 -99 -58 -52 -30 -102
-58 -111 -64 -9 -5 -43 -25 -75 -43 -32 -18 -74 -42 -93 -53 -19 -11 -91 -53
-160 -93 l-126 -72 -475 274 c-261 151 -497 288 -525 304 -27 16 -69 38 -91
50 -36 18 -43 27 -48 60 -18 110 -107 188 -209 182 -55 -3 -87 -16 -130 -54
-101 -88 -80 -257 41 -323 42 -23 58 -26 113 -22 58 3 68 1 119 -30 30 -18 75
-44 100 -58 25 -14 83 -47 130 -74 l85 -49 2 -250 c1 -137 2 -256 2 -266 1 -9
20 -27 44 -40 23 -13 220 -127 437 -253 217 -125 400 -228 405 -228 6 0 159
85 340 190 182 105 347 200 367 212 35 19 42 20 90 7 59 -15 85 -13 143 13 44
20 63 39 93 92 22 40 24 123 4 172 -15 36 -67 86 -108 103 -106 44 -248 -26
-270 -133 -5 -28 -32 -45 -319 -212 -172 -99 -320 -184 -329 -187 -10 -4 -129
59 -323 171 -170 97 -319 185 -333 194 -24 17 -24 21 -25 149 0 73 3 132 6
132 4 0 58 -30 120 -66 63 -37 130 -76 149 -87 19 -11 96 -54 170 -97 226
-130 230 -132 243 -122 10 8 341 200 512 297 165 94 342 198 349 205 13 13 14
469 1 493 -5 10 -32 31 -60 46 -27 16 -223 128 -433 249 -211 122 -387 222
-390 221 -4 0 -36 -18 -72 -40z m-759 -245 c39 -35 12 -104 -41 -104 -59 0
-86 60 -45 104 26 28 55 28 86 0z m-480 -254 c5 0 16 -11 25 -25 14 -21 14
-30 4 -55 -30 -73 -136 -35 -116 43 6 25 42 49 64 41 8 -2 18 -4 23 -4z m1679
-200 c31 -31 22 -78 -20 -100 -40 -21 -99 27 -85 70 16 51 69 66 105 30z m534
-662 c38 -54 1 -106 -71 -99 -20 2 -45 48 -38 70 17 53 81 70 109 29z"/>
</g>
</svg>
