<?xml version="1.0" standalone="no"?>
<!DOCTYPE svg PUBLIC "-//W3C//DTD SVG 20010904//EN"
 "http://www.w3.org/TR/2001/REC-SVG-20010904/DTD/svg10.dtd">
<svg version="1.0" xmlns="http://www.w3.org/2000/svg"
 width="260.000000pt" height="260.000000pt" viewBox="0 0 260.000000 260.000000"
 preserveAspectRatio="xMidYMid meet">
<metadata>
Created by potrace 1.14, written by Peter Selinger 2001-2017
</metadata>
<g transform="translate(0.000000,260.000000) scale(0.100000,-0.100000)"
fill="#000000" stroke="none">
<path d="M1101 2455 c-483 -85 -864 -453 -967 -935 -24 -114 -25 -341 -1 -463
95 -478 481 -860 955 -942 109 -19 315 -19 424 0 113 20 239 63 345 119 83 45
223 141 223 154 0 4 -41 48 -91 98 l-92 92 -60 -45 c-249 -183 -600 -224 -890
-103 -257 107 -450 323 -534 597 -24 80 -27 103 -27 253 0 152 2 172 27 253
82 264 255 466 500 583 108 51 214 75 352 81 142 6 264 -15 389 -67 74 -31
218 -119 232 -142 4 -5 -35 -52 -86 -103 l-93 -93 57 -57 c71 -72 117 -149
151 -250 75 -223 20 -473 -140 -644 l-63 -67 90 -92 c50 -51 94 -92 98 -92 11
0 112 109 153 167 50 69 113 205 139 300 27 104 30 325 5 425 -43 173 -122
319 -237 438 l-61 63 93 94 93 94 -43 38 c-104 91 -293 184 -459 227 -125 33
-352 41 -482 19z"/>
<path d="M1190 1923 c-115 -19 -256 -92 -341 -175 -296 -292 -250 -783 95
-1007 209 -137 503 -139 704 -6 l55 37 -95 94 -94 95 -59 -28 c-52 -24 -72
-28 -155 -28 -82 0 -103 4 -152 27 -80 37 -152 107 -191 187 -29 60 -32 74
-32 161 0 83 3 103 28 155 37 79 114 156 191 192 53 24 73 28 156 28 83 0 102
-4 155 -28 l59 -28 95 95 c109 109 110 97 -11 161 -116 62 -281 89 -408 68z"/>
</g>
</svg>
