<?xml version="1.0" standalone="no"?>
<!DOCTYPE svg PUBLIC "-//W3C//DTD SVG 20010904//EN"
 "http://www.w3.org/TR/2001/REC-SVG-20010904/DTD/svg10.dtd">
<svg version="1.0" xmlns="http://www.w3.org/2000/svg"
 width="260.000000pt" height="260.000000pt" viewBox="0 0 260.000000 260.000000"
 preserveAspectRatio="xMidYMid meet">
<metadata>
Created by potrace 1.14, written by Peter Selinger 2001-2017
</metadata>
<g transform="translate(0.000000,260.000000) scale(0.100000,-0.100000)"
fill="#000000" stroke="none">
<path d="M1165 2562 l-49 -7 -23 -79 c-12 -43 -20 -83 -17 -87 3 -5 16 -9 28
-9 59 0 229 -55 341 -109 241 -118 413 -279 560 -526 67 -111 96 -187 126
-330 20 -94 24 -137 23 -290 -1 -168 -3 -188 -32 -298 -34 -130 -103 -285
-175 -392 -25 -37 -44 -72 -41 -76 2 -4 38 -27 80 -49 l75 -42 37 28 c50 37
194 185 211 217 13 24 10 31 -33 106 l-46 81 26 41 c33 54 76 154 103 245 l22
70 89 23 c71 19 89 27 94 45 3 11 6 92 6 178 0 124 -3 160 -15 171 -8 8 -47
22 -87 32 -40 10 -78 23 -84 29 -6 6 -19 42 -29 80 -10 37 -41 115 -70 172
l-52 104 44 76 c23 42 43 82 43 89 0 16 -153 179 -213 226 l-47 38 -82 -48
-81 -48 -76 40 c-41 23 -122 57 -180 77 l-104 36 -22 82 c-12 46 -26 87 -32
93 -12 12 -249 20 -318 11z"/>
<path d="M810 2190 c-100 -9 -191 -29 -286 -65 -75 -28 -214 -104 -214 -116 0
-5 15 -34 34 -66 20 -33 31 -62 26 -68 -20 -24 -90 -176 -110 -240 -37 -118
-29 -109 -128 -135 l-89 -23 -7 -66 c-7 -81 -6 -190 2 -255 l7 -49 91 -25 91
-24 23 -81 c13 -44 46 -126 74 -182 l51 -101 -46 -79 c-47 -79 -47 -80 -29
-105 37 -51 106 -124 172 -181 l69 -59 52 31 c118 69 104 68 204 17 85 -44
176 -79 239 -92 28 -6 33 -13 48 -66 19 -72 21 -72 150 -29 236 79 440 240
570 450 33 54 35 61 15 46 -309 -220 -671 -235 -973 -40 -173 111 -304 292
-358 492 -28 102 -31 316 -5 410 42 153 99 258 201 368 144 155 321 246 519
269 l62 7 -85 24 c-47 12 -114 25 -150 28 -36 3 -81 7 -100 9 -19 1 -73 0
-120 -4z"/>
<path d="M960 1895 l-335 -194 -3 -141 -3 -141 30 -29 c22 -22 39 -30 66 -30
76 0 105 41 105 149 l0 69 236 136 c129 75 240 136 245 136 7 0 284 -157 473
-268 4 -2 -29 -26 -75 -53 -119 -69 -140 -67 -285 16 l-114 65 -117 -66 c-65
-37 -126 -74 -136 -82 -16 -14 -17 -32 -15 -166 l3 -150 132 -78 132 -77 113
64 c140 80 168 83 267 28 36 -20 74 -42 84 -48 15 -11 -12 -29 -205 -140 -123
-71 -231 -133 -240 -139 -13 -8 -67 19 -257 128 l-241 138 0 75 c0 112 -28
153 -105 153 -27 0 -44 -8 -66 -29 l-29 -29 0 -144 0 -144 333 -191 c182 -105
337 -193 342 -195 6 -2 162 84 348 191 l337 195 -2 399 -3 398 -330 191 c-181
104 -334 191 -340 193 -5 2 -161 -84 -345 -190z"/>
</g>
</svg>
