<?xml version="1.0" standalone="no"?>
<!DOCTYPE svg PUBLIC "-//W3C//DTD SVG 20010904//EN"
 "http://www.w3.org/TR/2001/REC-SVG-20010904/DTD/svg10.dtd">
<svg version="1.0" xmlns="http://www.w3.org/2000/svg"
 width="260.000000pt" height="260.000000pt" viewBox="0 0 260.000000 260.000000"
 preserveAspectRatio="xMidYMid meet">
<metadata>
Created by potrace 1.14, written by Peter Selinger 2001-2017
</metadata>
<g transform="translate(0.000000,260.000000) scale(0.100000,-0.100000)"
fill="#000000" stroke="none">
<path d="M750 2262 l-545 -318 -3 -650 -2 -650 496 -284 c273 -157 522 -299
553 -317 l56 -31 552 321 553 322 -1 645 0 645 -491 280 c-270 154 -521 297
-557 317 l-67 37 -544 -317z m510 -157 l0 -305 -95 0 -95 0 0 151 c0 83 -4
149 -8 147 -5 -1 -135 -77 -290 -168 l-282 -165 3 -469 2 -469 282 -162 c155
-90 285 -160 288 -157 3 3 5 65 5 139 l0 133 100 0 100 0 0 -294 c0 -162 -3
-297 -7 -299 -7 -3 -114 57 -763 431 l-185 107 -3 570 -2 570 467 272 c258
150 471 273 476 273 4 0 7 -137 7 -305z m560 27 l455 -260 3 -131 3 -131 -85
0 -85 0 -5 43 c-3 23 -7 60 -8 82 l-3 40 -275 156 c-151 86 -278 155 -281 153
-3 -2 -5 -13 -3 -26 1 -13 3 -164 3 -335 l1 -313 370 0 370 0 0 -339 0 -339
-464 -271 c-256 -149 -467 -271 -470 -271 -3 0 -6 133 -6 295 l0 295 100 0 99
0 3 -135 3 -135 280 163 280 162 3 193 2 192 -385 0 -385 0 0 591 c0 469 3
590 13 586 6 -2 217 -122 467 -265z"/>
</g>
</svg>
