<?xml version="1.0" standalone="no"?>
<!DOCTYPE svg PUBLIC "-//W3C//DTD SVG 20010904//EN"
 "http://www.w3.org/TR/2001/REC-SVG-20010904/DTD/svg10.dtd">
<svg version="1.0" xmlns="http://www.w3.org/2000/svg"
 width="260.000000pt" height="260.000000pt" viewBox="0 0 260.000000 260.000000"
 preserveAspectRatio="xMidYMid meet">
<metadata>
Created by potrace 1.14, written by Peter Selinger 2001-2017
</metadata>
<g transform="translate(0.000000,260.000000) scale(0.100000,-0.100000)"
fill="#000000" stroke="none">
<path d="M1426 2565 c-84 -30 -144 -124 -133 -207 4 -24 7 -50 9 -59 2 -11
-98 -119 -268 -290 -280 -284 -325 -340 -364 -455 -11 -31 -20 -60 -20 -64 0
-3 30 -6 68 -6 l67 1 38 79 c66 134 221 267 352 301 17 5 37 10 45 12 8 3 59
7 112 10 170 9 320 -47 439 -166 l66 -66 289 0 c333 1 306 -12 248 114 -76
165 -220 339 -367 444 -66 47 -201 119 -266 142 -24 8 -36 19 -37 31 -4 66
-52 136 -117 169 -57 28 -103 31 -161 10z m342 -371 c105 -48 198 -113 282
-196 67 -68 150 -175 150 -195 0 -5 -67 -9 -150 -9 l-149 1 -42 34 c-23 19
-47 40 -53 46 -31 31 -155 96 -233 121 -78 26 -103 29 -211 29 l-122 0 82 81
c78 76 85 81 113 73 64 -19 149 -2 188 36 27 27 46 24 145 -21z"/>
<path d="M827 2401 c-15 -3 -43 -21 -62 -39 -31 -31 -33 -38 -32 -87 3 -58 20
-86 69 -111 60 -31 137 -1 169 65 42 90 -43 192 -144 172z"/>
<path d="M353 1985 c-38 -16 -73 -68 -73 -107 0 -67 47 -123 109 -130 148 -18
201 180 64 238 -40 17 -59 17 -100 -1z"/>
<path d="M1255 1563 c-64 -26 -121 -78 -150 -138 l-27 -55 -292 0 -291 1 -27
44 c-76 125 -278 111 -348 -24 -29 -57 -22 -145 16 -202 53 -80 174 -115 254
-74 37 19 87 70 95 96 6 18 21 19 306 19 285 0 299 -1 299 -19 0 -10 12 -36
26 -57 61 -92 127 -128 234 -128 92 0 108 4 165 45 142 102 161 303 40 424
-79 78 -203 107 -300 68z"/>
<path d="M650 1108 c0 -15 43 -122 63 -157 41 -71 85 -120 336 -374 164 -165
255 -265 253 -275 -19 -105 -10 -147 44 -211 113 -135 331 -63 357 118 3 18
14 28 40 37 195 68 417 243 542 429 52 78 138 252 130 265 -2 3 -133 5 -292 5
l-288 0 -65 -65 c-155 -155 -394 -212 -600 -143 -148 49 -280 163 -346 298
l-39 80 -67 0 c-38 1 -68 -2 -68 -7z m1551 -316 c-22 -41 -102 -141 -157 -196
-76 -75 -202 -159 -304 -202 l-80 -33 -45 30 c-51 34 -126 48 -175 31 -30 -11
-33 -10 -116 71 l-85 82 93 -3 c106 -4 224 19 323 62 65 29 165 99 209 145
l30 31 158 0 c149 0 158 -1 149 -18z"/>
<path d="M380 854 c-60 -22 -100 -68 -100 -118 0 -122 142 -178 223 -88 63 69
16 191 -79 206 -16 3 -36 3 -44 0z"/>
<path d="M805 441 c-89 -39 -98 -176 -14 -225 126 -74 254 93 151 197 -32 31
-98 45 -137 28z"/>
</g>
</svg>
