<?xml version="1.0" standalone="no"?>
<!DOCTYPE svg PUBLIC "-//W3C//DTD SVG 20010904//EN"
 "http://www.w3.org/TR/2001/REC-SVG-20010904/DTD/svg10.dtd">
<svg version="1.0" xmlns="http://www.w3.org/2000/svg"
 width="260.000000pt" height="260.000000pt" viewBox="0 0 260.000000 260.000000"
 preserveAspectRatio="xMidYMid meet">
<metadata>
Created by potrace 1.14, written by Peter Selinger 2001-2017
</metadata>
<g transform="translate(0.000000,260.000000) scale(0.100000,-0.100000)"
fill="#000000" stroke="none">
<path d="M1201 2391 c-17 -11 -7 -43 11 -36 18 6 65 14 123 21 28 3 54 9 58
14 12 11 -175 12 -192 1z"/>
<path d="M1559 2386 c-2 -2 -24 -7 -49 -11 -25 -3 -52 -8 -60 -10 -8 -2 -33
-6 -55 -10 -22 -3 -79 -12 -126 -21 -83 -15 -87 -17 -93 -45 -4 -21 -11 -29
-26 -29 -12 0 -50 -7 -85 -16 l-64 -16 -23 27 -24 27 -89 -16 c-148 -27 -134
-18 -119 -76 18 -68 19 -69 61 -60 21 5 58 11 83 15 71 10 101 15 155 25 48 9
61 11 150 26 22 3 45 7 50 8 6 2 30 6 55 10 25 4 52 9 60 10 8 2 38 6 65 11
68 10 91 24 43 25 -24 0 -38 5 -38 13 0 6 -3 22 -6 34 -6 20 1 24 70 44 42 12
76 26 76 31 0 9 -4 10 -11 4z"/>
<path d="M1588 2383 c7 -3 16 -2 19 1 4 3 -2 6 -13 5 -11 0 -14 -3 -6 -6z"/>
<path d="M965 2333 c-67 -8 -95 -14 -95 -22 0 -10 112 8 125 20 5 5 7 8 5 8
-3 -1 -18 -4 -35 -6z"/>
<path d="M1668 2313 c-28 -34 -32 -46 -12 -40 11 3 41 8 69 12 l50 7 -39 19
c-48 23 -49 23 -68 2z"/>
<path d="M2049 2326 c-2 -2 -26 -7 -54 -11 -27 -3 -68 -10 -90 -15 -22 -5 -62
-12 -90 -15 -27 -4 -57 -8 -65 -10 -26 -7 -84 -17 -100 -17 -8 -1 -23 -7 -32
-16 -11 -9 -28 -13 -47 -9 -16 3 -80 -3 -142 -14 -63 -11 -130 -22 -149 -25
-19 -2 -44 -7 -56 -9 -12 -3 -39 -7 -60 -11 -32 -4 -198 -33 -294 -50 -14 -2
-43 -7 -65 -10 -51 -8 -61 -14 -124 -67 l-53 -43 -60 30 -59 31 -20 -25 c-12
-14 -31 -36 -43 -50 -12 -14 -32 -39 -44 -57 l-23 -32 37 -41 c20 -22 35 -42
32 -45 -2 -2 -33 -7 -68 -11 -36 -4 -74 -8 -85 -9 -11 -1 -30 -3 -43 -4 -13 0
-21 -5 -18 -9 3 -4 103 -7 223 -7 l218 1 110 38 c61 21 112 40 114 42 3 3 -13
2 -35 -1 -21 -3 -57 -8 -79 -11 -22 -3 -57 -9 -77 -14 -22 -4 -38 -4 -38 1 0
5 8 9 18 9 10 0 34 16 53 36 128 134 340 223 539 226 190 4 325 -36 483 -144
45 -30 65 -38 85 -34 15 3 44 9 66 12 21 3 47 7 58 9 10 2 55 9 99 16 43 6 81
15 84 19 2 4 -11 25 -30 46 l-34 39 -50 -27 c-28 -16 -57 -28 -64 -28 -6 0
-32 18 -56 40 -31 28 -40 41 -30 45 8 2 39 14 69 25 l55 20 -45 -6 c-59 -7
-84 -11 -149 -24 -68 -13 -77 -11 -26 4 36 11 42 18 57 62 9 27 14 56 12 65
-3 12 21 23 108 51 62 20 106 36 97 37 -9 1 -18 -1 -20 -3z"/>
<path d="M2388 2004 c-2 -1 -23 -5 -48 -9 -24 -4 -47 -8 -50 -10 -3 -1 -32 -6
-65 -10 -32 -3 -62 -8 -65 -10 -3 -2 -24 -6 -46 -9 -22 -4 -49 -8 -59 -10 -11
-2 -40 -7 -65 -11 -25 -4 -52 -9 -60 -10 -8 -1 -34 -6 -57 -10 l-43 -7 33 -32
c17 -17 45 -47 61 -66 l29 -35 218 0 c125 0 215 3 210 8 -5 5 -29 10 -54 12
-60 4 -171 16 -174 19 -2 2 13 21 32 44 20 22 34 46 33 52 -3 11 152 80 178
80 7 0 15 4 18 8 4 8 -20 13 -26 6z"/>
<path d="M210 1683 c-8 -3 -19 -12 -23 -19 -4 -8 -15 -14 -23 -14 -14 0 -114
-51 -140 -71 -14 -11 -13 -395 1 -393 6 1 35 5 65 8 30 4 79 10 108 15 28 4
52 4 52 0 0 -4 -21 -11 -47 -15 -27 -5 -50 -9 -53 -9 -27 -6 -117 -18 -122
-17 -10 2 -9 3 -13 -75 -4 -73 -10 -71 107 -44 46 11 99 22 119 25 20 3 42 8
50 10 8 3 38 7 67 10 29 3 57 8 62 11 15 9 13 125 -2 124 -7 0 -46 -6 -85 -13
-40 -7 -73 -9 -73 -5 0 5 10 9 22 9 12 0 50 5 85 11 l63 11 0 128 0 129 163 4
c89 2 173 7 187 11 32 9 54 13 114 21 27 3 52 8 55 10 3 2 29 6 56 9 28 3 59
8 70 10 11 2 46 7 78 11 31 4 59 11 62 14 2 4 -35 28 -83 53 l-87 46 -335 0
c-250 0 -355 -4 -414 -15 -43 -8 -81 -12 -84 -9 -3 3 3 6 14 6 10 0 26 5 34
10 12 8 10 10 -10 9 -14 0 -32 -3 -40 -6z"/>
<path d="M1502 1659 c-34 -16 -62 -32 -62 -34 0 -4 48 3 70 11 10 3 12 2 5 -5
-5 -5 -32 -13 -60 -17 -62 -8 -105 -29 -106 -52 -3 -44 -1 -214 2 -217 2 -2
38 3 79 10 41 7 97 16 124 19 27 4 52 9 55 10 3 2 33 7 66 11 82 9 90 15 86
64 l-3 41 206 0 206 0 1 -22 c1 -13 1 -26 0 -30 0 -5 5 -8 11 -9 18 -1 358 -1
385 0 20 1 22 6 22 69 l0 69 -107 55 -107 56 -275 -2 c-151 -1 -284 -6 -295
-10 -16 -6 -17 -6 -5 3 12 9 11 11 -8 11 -15 0 -21 -4 -16 -12 5 -7 3 -8 -7
-2 -8 5 -57 10 -110 11 -88 2 -100 0 -157 -28z m138 -9 c-8 -5 -22 -9 -30 -9
-10 0 -8 3 5 9 27 12 43 12 25 0z m47 4 c-3 -3 -12 -4 -19 -1 -8 3 -5 6 6 6
11 1 17 -2 13 -5z m-130 -20 c-3 -3 -12 -4 -19 -1 -8 3 -5 6 6 6 11 1 17 -2
13 -5z"/>
<path d="M1220 1576 c-3 -2 -25 -7 -50 -10 -49 -7 -120 -19 -243 -42 -42 -8
-87 -15 -100 -15 -17 -1 -18 -2 -4 -6 12 -3 17 -15 17 -39 l0 -34 208 1 207 1
0 71 c0 57 -3 72 -15 75 -9 1 -18 1 -20 -2z"/>
<path d="M1690 1384 c-36 -7 -127 -22 -202 -35 -76 -12 -138 -25 -138 -28 0
-3 45 -27 100 -53 l101 -48 305 1 c168 0 308 -2 311 -4 6 -7 8 -105 2 -112 -8
-7 -387 -7 -399 0 -5 3 -10 17 -10 31 0 13 -6 24 -12 25 -58 4 -382 3 -390 -2
-9 -6 -12 -51 -9 -121 1 -10 38 -36 104 -71 l102 -54 415 1 415 1 102 55 101
54 0 129 0 129 -95 46 -96 46 -314 1 c-201 0 -316 4 -321 10 -5 7 -28 7 -72
-1z"/>
<path d="M855 1170 c-16 -7 -17 -9 -3 -9 9 -1 20 4 23 9 7 11 7 11 -20 0z"/>
<path d="M1056 1173 c-1 -1 -33 -7 -71 -13 -39 -7 -77 -13 -85 -15 -8 -2 -25
-4 -37 -4 -16 -1 -23 -7 -23 -21 0 -16 -7 -20 -37 -20 -78 0 -239 -9 -265 -14
-16 -3 -38 -8 -50 -10 -13 -1 -36 -6 -53 -9 -16 -4 -43 -9 -60 -11 -80 -13
-232 -38 -245 -41 -8 -2 -25 -4 -37 -4 -40 -2 -25 -17 57 -60 51 -26 88 -40
102 -36 13 2 37 6 53 9 17 2 128 20 247 40 215 36 245 40 237 32 -3 -3 -97
-21 -224 -41 -16 -3 -57 -10 -90 -16 -33 -5 -68 -11 -77 -13 -69 -9 17 -13
312 -13 l339 0 103 56 102 56 1 73 c1 59 -1 72 -14 73 -55 2 -183 4 -185 2z
m161 -109 c-3 -3 -12 -4 -19 -1 -8 3 -5 6 6 6 11 1 17 -2 13 -5z m-147 -19 c0
-7 -30 -13 -34 -7 -3 4 4 9 15 9 10 1 19 0 19 -2z m-96 -15 c-10 -10 -145 -32
-152 -25 -2 2 13 6 34 10 32 5 106 19 124 24 2 0 0 -3 -6 -9z m43 4 c-3 -3
-12 -4 -19 -1 -8 3 -5 6 6 6 11 1 17 -2 13 -5z"/>
<path d="M178 818 c4 -3 36 -9 72 -12 36 -3 90 -9 120 -12 30 -4 61 -7 68 -7
19 -1 15 -11 -18 -42 -16 -16 -30 -35 -30 -43 0 -26 107 -162 127 -162 4 0 31
13 60 29 l52 29 27 -25 c24 -22 32 -24 83 -18 30 4 58 8 61 10 3 2 30 6 60 10
30 4 56 8 57 9 2 1 -28 24 -66 50 -39 26 -100 80 -138 119 l-67 72 -238 0
c-130 0 -234 -3 -230 -7z"/>
<path d="M1950 820 c0 -3 -16 -22 -36 -43 -41 -42 -36 -45 57 -27 30 6 72 13
94 15 22 3 60 9 85 15 47 9 99 16 210 26 133 12 72 19 -165 19 -135 1 -245 -2
-245 -5z"/>
<path d="M2075 755 c-44 -7 -96 -16 -115 -19 -19 -4 -51 -9 -70 -13 -19 -3
-46 -17 -60 -30 -69 -65 -229 -150 -326 -172 -77 -18 -164 -29 -158 -19 3 4
11 8 17 8 23 0 89 21 83 27 -2 3 -27 0 -53 -6 -26 -6 -60 -13 -75 -15 -15 -3
-64 -12 -109 -21 -44 -9 -83 -14 -87 -11 -3 3 4 6 16 6 35 0 34 17 -1 23 -41
6 -79 15 -84 20 -2 3 32 19 77 37 44 19 79 35 77 36 -2 2 -50 -5 -107 -16 -58
-10 -123 -21 -145 -24 -125 -19 -225 -40 -225 -47 0 -5 9 -13 20 -19 15 -8 17
-15 11 -33 -5 -12 -9 -25 -10 -29 0 -5 -1 -9 -2 -10 0 -2 -2 -13 -5 -25 -2
-12 -5 -28 -6 -34 -2 -7 25 -27 58 -45 56 -29 66 -31 109 -23 44 8 55 16 86
62 4 5 36 2 78 -7 71 -16 107 -16 204 2 26 5 47 6 47 2 0 -4 -24 -11 -52 -15
-29 -5 -56 -9 -60 -10 -5 -2 -14 -3 -22 -4 -10 -1 -11 -11 -3 -54 5 -28 14
-57 19 -64 6 -8 41 -11 106 -10 l97 2 14 68 c11 54 18 67 33 67 10 0 49 7 85
17 l66 16 21 -29 c12 -16 30 -40 42 -53 l21 -24 85 40 c47 23 88 45 92 51 3 6
2 22 -4 36 -11 29 1 39 67 56 35 9 34 9 -15 4 -29 -2 -58 -6 -65 -8 -6 -1 -9
-1 -6 1 4 2 5 12 2 22 -3 13 7 27 34 47 21 16 51 41 67 56 l29 26 60 -31 60
-31 34 39 c19 22 48 59 64 82 l30 43 -28 35 c-15 19 -30 35 -33 34 -3 -1 -41
-7 -85 -14z m-348 -331 c-3 -3 -12 -4 -19 -1 -8 3 -5 6 6 6 11 1 17 -2 13 -5z
m-72 -11 c-11 -2 -35 -8 -52 -13 -18 -5 -33 -5 -33 0 0 9 36 17 80 17 19 1 20
0 5 -4z m-120 -20 c-11 -2 -35 -8 -52 -13 -18 -5 -33 -5 -33 0 0 9 36 17 80
17 19 1 20 0 5 -4z m-107 -18 c-6 -7 -104 -19 -98 -12 3 3 23 8 44 11 22 4 42
9 45 11 2 3 7 3 9 0 3 -3 3 -7 0 -10z"/>
<path d="M896 278 c7 -11 34 -10 34 1 0 6 -9 9 -19 8 -11 0 -17 -5 -15 -9z"/>
</g>
</svg>
