<?xml version="1.0" standalone="no"?>
<!DOCTYPE svg PUBLIC "-//W3C//DTD SVG 20010904//EN"
 "http://www.w3.org/TR/2001/REC-SVG-20010904/DTD/svg10.dtd">
<svg version="1.0" xmlns="http://www.w3.org/2000/svg"
 width="260.000000pt" height="260.000000pt" viewBox="0 0 260.000000 260.000000"
 preserveAspectRatio="xMidYMid meet">
<metadata>
Created by potrace 1.14, written by Peter Selinger 2001-2017
</metadata>
<g transform="translate(0.000000,260.000000) scale(0.100000,-0.100000)"
fill="#000000" stroke="none">
<path d="M1515 2573 c-50 -13 -110 -68 -133 -122 -17 -40 -19 -120 -4 -147 8
-14 -33 -60 -253 -280 -267 -268 -329 -342 -373 -453 -34 -84 -33 -87 48 -87
41 0 70 5 70 11 0 21 49 112 88 164 52 69 131 133 207 170 96 46 121 52 246
58 169 9 317 -47 437 -167 l67 -65 287 0 c171 0 288 4 288 9 0 22 -55 143 -92
204 -141 231 -322 382 -589 490 -20 8 -28 20 -34 48 -22 121 -140 197 -260
167z m283 -359 c119 -47 221 -114 318 -209 77 -76 164 -185 164 -205 0 -4 -70
-6 -154 -6 l-155 1 -33 31 c-60 55 -115 94 -184 127 -121 59 -176 72 -311 72
l-121 0 41 45 c82 88 127 124 139 112 30 -30 171 -2 207 41 17 21 10 22 89 -9z"/>
<path d="M900 2399 c-36 -8 -89 -57 -91 -84 -3 -49 -2 -64 10 -93 27 -65 115
-91 178 -52 122 74 44 259 -97 229z"/>
<path d="M423 1980 c-48 -29 -64 -55 -66 -103 -4 -143 192 -183 244 -49 13 34
11 59 -7 97 -30 65 -113 91 -171 55z"/>
<path d="M1330 1563 c-55 -20 -143 -106 -159 -156 l-13 -37 -294 0 -293 0 -15
28 c-92 176 -374 112 -378 -86 -2 -66 16 -112 61 -156 93 -91 247 -71 313 40
l20 34 292 0 291 0 24 -51 c88 -183 332 -213 466 -57 65 76 83 214 40 299 -25
48 -85 109 -129 131 -55 28 -165 34 -226 11z"/>
<path d="M735 1081 c9 -48 58 -144 106 -208 21 -29 152 -165 290 -303 l251
-251 -9 -53 c-17 -99 28 -185 117 -225 75 -34 154 -23 216 31 41 36 59 69 69
122 6 28 14 40 34 48 91 37 179 83 248 129 163 109 330 309 402 482 17 42 31
79 31 84 0 5 -130 8 -289 8 l-289 0 -52 -53 c-297 -305 -804 -216 -974 170
l-23 52 -67 1 -68 2 7 -36z m1545 -277 c0 -18 -85 -130 -150 -195 -87 -88
-211 -172 -324 -218 l-78 -32 -22 20 c-47 44 -141 64 -198 42 -21 -8 -33 0
-101 66 -42 42 -77 78 -77 82 0 3 53 6 118 7 190 1 334 58 482 192 l45 41 153
1 c83 0 152 -3 152 -6z"/>
<path d="M421 839 c-108 -66 -73 -224 51 -234 54 -4 94 18 121 67 20 37 21 65
7 104 -12 30 -57 73 -80 76 -55 5 -73 3 -99 -13z"/>
<path d="M875 436 c-85 -37 -91 -167 -11 -219 68 -45 172 -2 192 80 11 43 -13
100 -54 128 -40 28 -81 31 -127 11z"/>
</g>
</svg>
