<?xml version="1.0" standalone="no"?>
<!DOCTYPE svg PUBLIC "-//W3C//DTD SVG 20010904//EN"
 "http://www.w3.org/TR/2001/REC-SVG-20010904/DTD/svg10.dtd">
<svg version="1.0" xmlns="http://www.w3.org/2000/svg"
 width="260.000000pt" height="260.000000pt" viewBox="0 0 260.000000 260.000000"
 preserveAspectRatio="xMidYMid meet">
<metadata>
Created by potrace 1.14, written by Peter Selinger 2001-2017
</metadata>
<g transform="translate(0.000000,260.000000) scale(0.100000,-0.100000)"
fill="#000000" stroke="none">
<path d="M1180 2588 c-99 -15 -222 -50 -316 -88 -76 -31 -101 -37 -138 -33
-172 20 -255 -189 -118 -294 30 -23 47 -28 93 -28 74 0 131 37 155 101 14 37
25 48 69 69 152 71 381 104 570 81 63 -8 206 -41 240 -55 89 -38 200 -97 251
-133 75 -52 154 -119 154 -128 0 -4 -66 -7 -147 -6 l-148 2 -86 41 c-132 64
-230 87 -379 88 -69 0 -145 -3 -170 -7 -330 -52 -631 -318 -723 -638 -27 -93
-29 -111 -33 -235 -5 -161 25 -302 88 -423 19 -35 28 -67 28 -99 0 -109 125
-180 218 -123 65 40 91 125 57 190 -17 33 -74 80 -97 80 -15 0 -40 44 -64 115
-26 78 -40 170 -38 256 7 297 205 563 491 658 200 67 453 34 616 -81 26 -19
47 -20 407 -21 209 -1 380 -1 380 0 0 7 -151 218 -185 259 -204 240 -500 406
-800 451 -60 9 -321 10 -375 1z m-452 -197 c23 -2 62 -49 62 -75 0 -83 -89
-127 -145 -71 -23 24 -30 46 -26 85 3 23 57 69 78 65 10 -2 24 -4 31 -4z"/>
<path d="M208 1905 c-48 -16 -75 -43 -91 -90 -14 -43 -14 -44 -4 -95 4 -22 1
-56 -9 -90 -28 -103 -42 -223 -39 -355 2 -71 5 -141 8 -155 2 -14 8 -45 11
-70 25 -156 133 -397 240 -535 183 -234 428 -399 701 -470 133 -34 184 -40
350 -39 178 1 297 23 451 83 125 50 266 127 320 176 6 5 36 30 65 55 30 24 84
78 121 120 67 74 197 256 198 275 0 7 -130 9 -373 8 l-372 -2 -60 -35 c-63
-38 -145 -72 -197 -82 -96 -17 -133 -21 -194 -18 -63 3 -68 5 -96 39 -38 46
-80 67 -133 67 -164 0 -226 -211 -89 -302 43 -29 121 -33 164 -9 18 9 62 13
155 12 177 -2 292 23 430 95 l70 35 153 2 c83 1 152 -1 152 -4 0 -12 -92 -88
-167 -138 -447 -294 -1016 -237 -1394 140 -270 269 -380 658 -293 1033 14 59
22 73 49 91 81 54 81 186 0 239 -39 25 -88 33 -127 19z m941 -1299 c52 -28 62
-100 18 -143 -65 -66 -176 5 -146 94 18 54 75 76 128 49z"/>
</g>
</svg>
