<?xml version="1.0" standalone="no"?>
<!DOCTYPE svg PUBLIC "-//W3C//DTD SVG 20010904//EN"
 "http://www.w3.org/TR/2001/REC-SVG-20010904/DTD/svg10.dtd">
<svg version="1.0" xmlns="http://www.w3.org/2000/svg"
 width="260.000000pt" height="260.000000pt" viewBox="0 0 260.000000 260.000000"
 preserveAspectRatio="xMidYMid meet">
<metadata>
Created by potrace 1.14, written by Peter Selinger 2001-2017
</metadata>
<g transform="translate(0.000000,260.000000) scale(0.100000,-0.100000)"
fill="#000000" stroke="none">
<path d="M132 2559 c-53 -26 -96 -78 -111 -133 -9 -30 -11 -342 -9 -1142 l3
-1100 28 -42 c15 -23 46 -54 69 -69 l42 -28 1140 -3 1140 -2 54 26 c35 17 62
40 80 67 l27 41 0 1136 0 1137 -29 41 c-18 26 -47 51 -79 67 l-51 25 -1130 0
-1131 0 -43 -21z m1108 -494 c0 -2 -16 -12 -37 -21 -84 -40 -152 -149 -177
-280 l-12 -69 -190 -5 -189 -5 1 -165 c0 -91 1 -261 2 -377 l2 -213 670 0 670
0 0 94 0 95 -293 3 -292 3 -66 32 c-80 39 -150 111 -187 191 -26 56 -27 62
-27 247 0 187 0 191 28 246 57 118 157 195 282 219 41 7 202 10 500 8 l440 -3
3 -187 2 -188 -437 -2 -438 -3 -3 -92 -3 -93 264 0 c340 0 399 -14 506 -121
90 -90 115 -180 109 -390 -3 -136 -5 -148 -34 -209 -39 -83 -106 -150 -192
-192 l-67 -33 -765 0 -765 0 -57 23 c-81 33 -160 108 -200 190 l-33 67 0 470
0 470 33 67 c39 80 106 149 181 186 l56 27 350 5 c193 3 353 7 358 8 4 1 7 0
7 -3z"/>
</g>
</svg>
